<svg width="118" height="19" viewBox="0 0 118 19" fill="none" xmlns="http://www.w3.org/2000/svg">
<path fill-rule="evenodd" clip-rule="evenodd" d="M3.00464 6.14266C1.77285 4.86588 2.10343 2.64264 3.64017 1.87118C5.50717 0.933698 7.51398 2.18011 7.51398 4.27702C7.51398 6.74982 4.70917 7.91028 3.00464 6.14266ZM1.0431 7.57236C0.413553 6.34217 -0.253898 5.49439 0.0969497 5.13063C0.305355 4.91455 0.801733 5.25972 2.18333 6.58207C3.1651 7.52128 4.97317 8.52399 6.26555 8.84604C7.17907 9.07385 7.18107 9.08145 7.18107 12.1359C7.18107 15.7912 6.7516 16.5951 4.64292 16.8882C2.67172 17.1626 2.18733 16.3238 2.18733 12.6374C2.18733 10.0783 2.07813 9.5954 1.0431 7.57236Z" fill="#F87214"/>
<path fill-rule="evenodd" clip-rule="evenodd" d="M14.5495 6.11988C13.5887 6.97038 12.0619 7.93859 11.1571 8.27202L9.51148 8.8778V12.0917C9.51148 15.0436 9.57806 15.3746 10.3288 16.1526C10.8828 16.727 11.5183 17 12.3023 17C14.1553 17 14.5049 16.3538 14.5085 12.9197C14.5112 10.4911 15.0056 8.44144 15.0991 8.11512C15.1927 7.7888 15.5998 7.25023 16.4684 6.14922C17.337 5.04822 16.9711 4.57387 16.566 4.57387C16.4178 4.57387 15.5103 5.26973 14.5495 6.11988Z" fill="#037BFF"/>
<path d="M14.28 3.54167C14.28 5.02823 13.0622 6.23333 11.56 6.23333C10.0578 6.23333 8.84 5.02823 8.84 3.54167C8.84 2.0551 10.0578 0.849998 11.56 0.849998C13.0622 0.849998 14.28 2.0551 14.28 3.54167Z" fill="#027AFE"/>
<path d="M19 6H21.184L25.356 12.706H25.384V6H27.442V15.996H25.244L21.086 9.304H21.058V15.996H19V6Z" fill="#F87215"/>
<path d="M34.039 11.6C33.9456 11.096 33.7776 10.7133 33.535 10.452C33.3016 10.1907 32.9423 10.06 32.457 10.06C32.1396 10.06 31.8736 10.116 31.659 10.228C31.4536 10.3307 31.2856 10.4613 31.155 10.62C31.0336 10.7787 30.945 10.9467 30.889 11.124C30.8423 11.3013 30.8143 11.46 30.805 11.6H34.039ZM30.805 12.86C30.833 13.504 30.9963 13.9707 31.295 14.26C31.5936 14.5493 32.023 14.694 32.583 14.694C32.9843 14.694 33.3296 14.596 33.619 14.4C33.9083 14.1947 34.0856 13.98 34.151 13.756H35.901C35.621 14.624 35.1916 15.2447 34.613 15.618C34.0343 15.9913 33.3343 16.178 32.513 16.178C31.9436 16.178 31.4303 16.0893 30.973 15.912C30.5156 15.7253 30.1283 15.464 29.811 15.128C29.4936 14.792 29.2463 14.3907 29.069 13.924C28.901 13.4573 28.817 12.944 28.817 12.384C28.817 11.8427 28.9056 11.3387 29.083 10.872C29.2603 10.4053 29.5123 10.004 29.839 9.668C30.1656 9.32266 30.553 9.052 31.001 8.856C31.4583 8.66 31.9623 8.562 32.513 8.562C33.129 8.562 33.6656 8.68333 34.123 8.926C34.5803 9.15933 34.9536 9.47666 35.243 9.878C35.5416 10.2793 35.7563 10.7367 35.887 11.25C36.0176 11.7633 36.0643 12.3 36.027 12.86H30.805Z" fill="#F87215"/>
<path d="M39.25 7.638H37.262V6H39.25V7.638ZM37.262 8.758H39.25V15.996H37.262V8.758Z" fill="#F87215"/>
<path d="M44.1894 14.288C44.4694 14.288 44.7167 14.232 44.9314 14.12C45.1461 14.008 45.3234 13.8587 45.4634 13.672C45.6034 13.4853 45.7061 13.2753 45.7714 13.042C45.8461 12.7993 45.8834 12.5473 45.8834 12.286C45.8834 11.9873 45.8554 11.7073 45.7994 11.446C45.7434 11.1753 45.6501 10.9373 45.5194 10.732C45.3887 10.5267 45.2161 10.3633 45.0014 10.242C44.7867 10.1207 44.5161 10.06 44.1894 10.06C43.9094 10.06 43.6667 10.116 43.4614 10.228C43.2654 10.34 43.0974 10.494 42.9574 10.69C42.8267 10.8767 42.7287 11.096 42.6634 11.348C42.6074 11.5907 42.5794 11.8473 42.5794 12.118C42.5794 12.3793 42.6027 12.6407 42.6494 12.902C42.7054 13.154 42.7941 13.3827 42.9154 13.588C43.0461 13.7933 43.2141 13.9613 43.4194 14.092C43.6247 14.2227 43.8814 14.288 44.1894 14.288ZM47.7734 15.534C47.7734 15.8233 47.7314 16.1547 47.6474 16.528C47.5727 16.9013 47.4047 17.2467 47.1434 17.564C46.8821 17.8907 46.5041 18.166 46.0094 18.39C45.5147 18.614 44.8521 18.726 44.0214 18.726C43.6667 18.726 43.3027 18.6793 42.9294 18.586C42.5654 18.502 42.2294 18.3667 41.9214 18.18C41.6227 17.9933 41.3707 17.7507 41.1654 17.452C40.9694 17.1627 40.8574 16.8127 40.8294 16.402H42.8034C42.8967 16.7753 43.0787 17.032 43.3494 17.172C43.6201 17.3213 43.9327 17.396 44.2874 17.396C44.8474 17.396 45.2534 17.228 45.5054 16.892C45.7667 16.556 45.8927 16.1313 45.8834 15.618V14.666H45.8554C45.6407 15.0487 45.3327 15.3333 44.9314 15.52C44.5394 15.6973 44.1241 15.786 43.6854 15.786C43.1441 15.786 42.6774 15.6927 42.2854 15.506C41.8934 15.31 41.5714 15.0487 41.3194 14.722C41.0674 14.386 40.8807 13.9987 40.7594 13.56C40.6474 13.112 40.5914 12.6407 40.5914 12.146C40.5914 11.6793 40.6567 11.2313 40.7874 10.802C40.9274 10.3633 41.1281 9.98066 41.3894 9.654C41.6507 9.318 41.9727 9.052 42.3554 8.856C42.7474 8.66 43.1954 8.562 43.6994 8.562C44.1754 8.562 44.5907 8.65066 44.9454 8.828C45.3094 9.00533 45.6127 9.304 45.8554 9.724H45.8834V8.758H47.7734V15.534Z" fill="#F87215"/>
<path d="M49.374 6H51.362V9.766H51.404C51.656 9.346 51.978 9.04266 52.37 8.856C52.762 8.66 53.1447 8.562 53.518 8.562C54.05 8.562 54.484 8.63666 54.82 8.786C55.1653 8.926 55.436 9.12666 55.632 9.388C55.828 9.64 55.9633 9.95266 56.038 10.326C56.122 10.69 56.164 11.096 56.164 11.544V15.996H54.176V11.908C54.176 11.3107 54.0827 10.8673 53.896 10.578C53.7093 10.2793 53.378 10.13 52.902 10.13C52.3607 10.13 51.9686 10.2933 51.726 10.62C51.4833 10.9373 51.362 11.4647 51.362 12.202V15.996H49.374V6Z" fill="#F87215"/>
<path d="M62.9788 12.384C62.9788 12.076 62.9461 11.782 62.8808 11.502C62.8155 11.222 62.7128 10.9747 62.5728 10.76C62.4328 10.5453 62.2555 10.3773 62.0408 10.256C61.8355 10.1253 61.5835 10.06 61.2848 10.06C60.9955 10.06 60.7435 10.1253 60.5288 10.256C60.3141 10.3773 60.1368 10.5453 59.9968 10.76C59.8568 10.9747 59.7541 11.222 59.6888 11.502C59.6235 11.782 59.5908 12.076 59.5908 12.384C59.5908 12.6827 59.6235 12.972 59.6888 13.252C59.7541 13.532 59.8568 13.7793 59.9968 13.994C60.1368 14.2087 60.3141 14.3813 60.5288 14.512C60.7435 14.6333 60.9955 14.694 61.2848 14.694C61.5835 14.694 61.8355 14.6333 62.0408 14.512C62.2555 14.3813 62.4328 14.2087 62.5728 13.994C62.7128 13.7793 62.8155 13.532 62.8808 13.252C62.9461 12.972 62.9788 12.6827 62.9788 12.384ZM57.6728 6H59.6608V9.64H59.6888C59.9315 9.26666 60.2581 8.996 60.6688 8.828C61.0888 8.65066 61.5228 8.562 61.9708 8.562C62.3348 8.562 62.6941 8.63666 63.0488 8.786C63.4035 8.93533 63.7208 9.164 64.0008 9.472C64.2901 9.78 64.5235 10.1767 64.7008 10.662C64.8781 11.138 64.9668 11.7073 64.9668 12.37C64.9668 13.0327 64.8781 13.6067 64.7008 14.092C64.5235 14.568 64.2901 14.96 64.0008 15.268C63.7208 15.576 63.4035 15.8047 63.0488 15.954C62.6941 16.1033 62.3348 16.178 61.9708 16.178C61.4388 16.178 60.9628 16.094 60.5428 15.926C60.1228 15.758 59.8055 15.4733 59.5908 15.072H59.5628V15.996H57.6728V6Z" fill="#F87215"/>
<path d="M67.9954 12.384C67.9954 12.6733 68.0234 12.958 68.0794 13.238C68.1354 13.5087 68.2287 13.756 68.3594 13.98C68.4994 14.1947 68.6814 14.3673 68.9054 14.498C69.1294 14.6287 69.4094 14.694 69.7454 14.694C70.0814 14.694 70.3614 14.6287 70.5854 14.498C70.8187 14.3673 71.0007 14.1947 71.1314 13.98C71.2714 13.756 71.3694 13.5087 71.4254 13.238C71.4814 12.958 71.5094 12.6733 71.5094 12.384C71.5094 12.0947 71.4814 11.81 71.4254 11.53C71.3694 11.25 71.2714 11.0027 71.1314 10.788C71.0007 10.5733 70.8187 10.4007 70.5854 10.27C70.3614 10.13 70.0814 10.06 69.7454 10.06C69.4094 10.06 69.1294 10.13 68.9054 10.27C68.6814 10.4007 68.4994 10.5733 68.3594 10.788C68.2287 11.0027 68.1354 11.25 68.0794 11.53C68.0234 11.81 67.9954 12.0947 67.9954 12.384ZM66.0074 12.384C66.0074 11.8053 66.0961 11.2827 66.2734 10.816C66.4507 10.34 66.7027 9.93866 67.0294 9.612C67.3561 9.276 67.7481 9.01933 68.2054 8.842C68.6627 8.65533 69.1761 8.562 69.7454 8.562C70.3147 8.562 70.8281 8.65533 71.2854 8.842C71.7521 9.01933 72.1487 9.276 72.4754 9.612C72.8021 9.93866 73.0541 10.34 73.2314 10.816C73.4087 11.2827 73.4974 11.8053 73.4974 12.384C73.4974 12.9627 73.4087 13.4853 73.2314 13.952C73.0541 14.4187 72.8021 14.82 72.4754 15.156C72.1487 15.4827 71.7521 15.7347 71.2854 15.912C70.8281 16.0893 70.3147 16.178 69.7454 16.178C69.1761 16.178 68.6627 16.0893 68.2054 15.912C67.7481 15.7347 67.3561 15.4827 67.0294 15.156C66.7027 14.82 66.4507 14.4187 66.2734 13.952C66.0961 13.4853 66.0074 12.9627 66.0074 12.384Z" fill="#F87215"/>
<path d="M74.79 8.758H76.68V10.102H76.708C76.8013 9.878 76.9273 9.67266 77.086 9.486C77.2447 9.29 77.4267 9.12666 77.632 8.996C77.8373 8.856 78.0567 8.74866 78.29 8.674C78.5233 8.59933 78.766 8.562 79.018 8.562C79.1487 8.562 79.2933 8.58533 79.452 8.632V10.48C79.3587 10.4613 79.2467 10.4473 79.116 10.438C78.9853 10.4193 78.8593 10.41 78.738 10.41C78.374 10.41 78.066 10.4707 77.814 10.592C77.562 10.7133 77.3567 10.8813 77.198 11.096C77.0487 11.3013 76.9413 11.544 76.876 11.824C76.8107 12.104 76.778 12.4073 76.778 12.734V15.996H74.79V8.758Z" fill="#F87215"/>
<path d="M80.2874 6H82.2754V15.996H80.2874V6Z" fill="#F87215"/>
<path d="M87.4108 16.892C87.1961 17.48 86.8974 17.9 86.5148 18.152C86.1321 18.404 85.6001 18.53 84.9188 18.53C84.7135 18.53 84.5081 18.5207 84.3028 18.502C84.1068 18.4927 83.9061 18.4787 83.7008 18.46V16.822C83.8874 16.8407 84.0788 16.8593 84.2748 16.878C84.4708 16.8967 84.6668 16.9013 84.8628 16.892C85.1241 16.864 85.3154 16.7613 85.4368 16.584C85.5674 16.4067 85.6328 16.2107 85.6328 15.996C85.6328 15.8373 85.6048 15.688 85.5488 15.548L83.0148 8.758H85.1288L86.7668 13.714H86.7948L88.3768 8.758H90.4348L87.4108 16.892Z" fill="#F87215"/>
<path d="M91.3105 6H93.5085V9.836H97.5546V6H99.7525V15.996H97.5546V11.684H93.5085V15.996H91.3105V6Z" fill="#037AFF"/>
<path d="M108.268 15.996H106.378V14.988H106.336C106.084 15.408 105.757 15.7113 105.355 15.898C104.954 16.0847 104.543 16.178 104.123 16.178C103.591 16.178 103.153 16.108 102.808 15.968C102.472 15.828 102.205 15.632 102.009 15.38C101.813 15.1187 101.674 14.806 101.59 14.442C101.515 14.0687 101.478 13.658 101.478 13.21V8.758H103.465V12.846C103.465 13.4433 103.559 13.8913 103.745 14.19C103.932 14.4793 104.264 14.624 104.74 14.624C105.281 14.624 105.673 14.4653 105.915 14.148C106.158 13.8213 106.28 13.2893 106.28 12.552V8.758H108.268V15.996Z" fill="#037AFF"/>
<path d="M115.082 12.384C115.082 12.076 115.05 11.782 114.984 11.502C114.919 11.222 114.816 10.9747 114.676 10.76C114.536 10.5453 114.359 10.3773 114.144 10.256C113.939 10.1253 113.687 10.06 113.388 10.06C113.099 10.06 112.847 10.1253 112.632 10.256C112.418 10.3773 112.24 10.5453 112.1 10.76C111.96 10.9747 111.858 11.222 111.792 11.502C111.727 11.782 111.694 12.076 111.694 12.384C111.694 12.6827 111.727 12.972 111.792 13.252C111.858 13.532 111.96 13.7793 112.1 13.994C112.24 14.2087 112.418 14.3813 112.632 14.512C112.847 14.6333 113.099 14.694 113.388 14.694C113.687 14.694 113.939 14.6333 114.144 14.512C114.359 14.3813 114.536 14.2087 114.676 13.994C114.816 13.7793 114.919 13.532 114.984 13.252C115.05 12.972 115.082 12.6827 115.082 12.384ZM109.776 6H111.764V9.64H111.792C112.035 9.26666 112.362 8.996 112.772 8.828C113.192 8.65066 113.626 8.562 114.074 8.562C114.438 8.562 114.798 8.63666 115.152 8.786C115.507 8.93533 115.824 9.164 116.104 9.472C116.394 9.78 116.627 10.1767 116.804 10.662C116.982 11.138 117.07 11.7073 117.07 12.37C117.07 13.0327 116.982 13.6067 116.804 14.092C116.627 14.568 116.394 14.96 116.104 15.268C115.824 15.576 115.507 15.8047 115.152 15.954C114.798 16.1033 114.438 16.178 114.074 16.178C113.542 16.178 113.066 16.094 112.646 15.926C112.226 15.758 111.909 15.4733 111.694 15.072H111.666V15.996H109.776V6Z" fill="#037AFF"/>
</svg>
